<svg id="svg" xmlns="http://www.w3.org/2000/svg" xmlns:xlink="http://www.w3.org/1999/xlink" width="400" height="400" viewBox="0, 0, 400,400"><g id="svgg"><path id="path0" d="M162.205 0.829 C 92.481 8.398,32.045 56.666,9.845 122.514 C 7.404 129.754,7.432 129.433,6.266 163.255 C 5.515 185.024,5.948 238.489,7.034 258.268 L 7.770 271.654 9.968 277.953 C 33.201 344.550,92.837 391.837,162.870 399.191 C 173.931 400.353,226.069 400.353,237.130 399.191 C 302.214 392.356,362.395 347.939,385.477 289.704 C 390.914 275.985,390.908 124.000,385.469 110.277 C 362.397 52.063,302.204 7.643,237.130 0.809 C 226.826 -0.273,172.223 -0.258,162.205 0.829 M163.780 124.841 L 163.780 198.763 157.932 204.500 C 154.716 207.655,134.714 227.537,113.482 248.682 C 92.251 269.827,74.792 287.040,74.685 286.933 C 74.399 286.647,73.519 279.807,72.957 273.491 C 72.686 270.459,72.209 265.262,71.896 261.942 C 69.841 240.165,69.846 148.115,71.903 128.569 C 72.220 125.560,72.695 120.971,72.960 118.373 C 73.395 114.084,73.795 111.396,75.571 100.787 C 75.886 98.911,76.344 97.012,76.589 96.568 C 76.835 96.124,77.196 94.706,77.393 93.418 C 77.589 92.130,77.953 90.604,78.202 90.026 C 78.451 89.449,79.256 87.087,79.991 84.777 C 81.786 79.137,82.694 76.683,83.681 74.803 C 84.136 73.937,84.509 72.953,84.511 72.616 C 84.513 72.279,84.692 71.925,84.908 71.829 C 85.125 71.732,85.887 70.531,86.603 69.160 C 87.319 67.789,88.071 66.667,88.274 66.667 C 88.477 66.667,88.775 66.253,88.935 65.748 C 89.542 63.840,96.506 57.112,101.017 54.076 L 105.709 50.919 134.744 50.919 L 163.780 50.919 163.780 124.841 M292.453 52.631 C 295.495 54.383,302.087 59.650,302.545 60.695 C 302.687 61.019,295.417 68.696,286.389 77.755 C 267.954 96.254,232.522 131.234,232.219 131.234 C 232.110 131.234,232.021 113.163,232.021 91.076 L 232.021 50.919 260.761 50.925 L 289.501 50.932 292.453 52.631 M323.372 127.034 C 324.918 136.668,326.128 215.438,324.985 232.021 C 324.676 236.496,324.186 245.591,323.895 252.231 C 323.066 271.139,320.449 293.071,318.131 300.525 C 317.862 301.391,317.484 303.225,317.290 304.600 C 317.097 305.975,316.752 307.215,316.524 307.356 C 316.296 307.497,315.946 308.793,315.748 310.236 C 315.550 311.679,315.194 312.979,314.957 313.126 C 314.721 313.272,314.368 314.334,314.173 315.486 C 313.979 316.637,313.604 317.713,313.340 317.876 C 313.077 318.039,312.853 318.572,312.843 319.060 C 312.833 319.548,312.369 320.892,311.811 322.047 C 311.253 323.202,310.789 324.317,310.779 324.525 C 310.769 324.732,309.583 326.896,308.144 329.333 C 297.357 347.595,275.115 357.480,244.810 357.480 L 232.021 357.480 232.021 284.177 L 232.021 210.874 236.877 205.898 C 239.547 203.161,242.786 199.947,244.074 198.755 C 245.362 197.563,263.551 179.519,284.494 158.656 C 318.659 124.623,322.585 120.874,322.698 122.174 C 322.767 122.970,323.071 125.157,323.372 127.034 M163.908 325.066 L 164.042 357.481 150.919 357.480 C 135.623 357.480,130.898 356.807,118.898 352.921 C 111.657 350.576,97.896 343.451,98.778 342.504 C 101.218 339.886,134.512 306.639,146.786 294.564 L 163.517 278.104 163.645 285.378 C 163.716 289.378,163.834 307.238,163.908 325.066 " stroke="none" fill="#000000" fill-rule="evenodd"></path></g></svg>