<?xml version="1.0" encoding="UTF-8" standalone="no"?>
<!-- Generator: Adobe Illustrator 27.7.0, SVG Export Plug-In . SVG Version: 6.00 Build 0)  -->

<svg
   version="1.1"
   id="Layer_1"
   x="0px"
   y="0px"
   viewBox="0 0 2997.939 1085.6343"
   xml:space="preserve"
   sodipodi:docname="PATREON_PLUS_OZI_SYMBOL_1_BLACK.svg"
   inkscape:version="1.1.2 (0a00cf5339, 2022-02-04)"
   width="2997.939"
   height="1085.6343"
   xmlns:inkscape="http://www.inkscape.org/namespaces/inkscape"
   xmlns:sodipodi="http://sodipodi.sourceforge.net/DTD/sodipodi-0.dtd"
   xmlns="http://www.w3.org/2000/svg"
   xmlns:svg="http://www.w3.org/2000/svg"><defs
   id="defs7" /><sodipodi:namedview
   id="namedview5"
   pagecolor="#505050"
   bordercolor="#ffffff"
   borderopacity="1"
   inkscape:pageshadow="0"
   inkscape:pageopacity="0"
   inkscape:pagecheckerboard="1"
   showgrid="true"
   inkscape:zoom="0.13421934"
   inkscape:cx="964.83858"
   inkscape:cy="614.6655"
   inkscape:window-width="1920"
   inkscape:window-height="1009"
   inkscape:window-x="0"
   inkscape:window-y="1114"
   inkscape:window-maximized="1"
   inkscape:current-layer="Layer_1"><inkscape:grid
     type="xygrid"
     id="grid1326" /></sodipodi:namedview>
<path
   d="m 986.10451,324.45265 c -0.19,-137.9 -107.59,-250.919996 -233.6,-291.699996 -156.48,-50.64 -362.86,-43.3 -512.28,27.2 C 59.124506,145.41265 2.2345058,332.61265 0.11450577,519.31265 -1.6254942,672.81265 13.694506,1077.1027 241.73451,1079.9827 c 169.44,2.15 194.67,-216.18005 273.07,-321.33005 55.78,-74.81 127.6,-95.94 216.01,-117.82 151.95,-37.61 255.51,-157.53 255.29,-316.38 z"
   id="path2" />
<g
   id="svgg"
   transform="matrix(2.7106686,0,0,2.7106686,1941.994,1.1974814)"><path
     id="path0"
     d="M 162.205,0.829 C 92.481,8.398 32.045,56.666 9.845,122.514 c -2.441,7.24 -2.413,6.919 -3.579,40.741 -0.751,21.769 -0.318,75.234 0.768,95.013 l 0.736,13.386 2.198,6.299 c 23.233,66.597 82.869,113.884 152.902,121.238 11.061,1.162 63.199,1.162 74.26,0 65.084,-6.835 125.265,-51.252 148.347,-109.487 C 390.914,275.985 390.908,124 385.469,110.277 362.397,52.063 302.204,7.643 237.13,0.809 226.826,-0.273 172.223,-0.258 162.205,0.829 m 1.575,124.012 v 73.922 l -5.848,5.737 c -3.216,3.155 -23.218,23.037 -44.45,44.182 -21.231,21.145 -38.69,38.358 -38.797,38.251 -0.286,-0.286 -1.166,-7.126 -1.728,-13.442 -0.271,-3.032 -0.748,-8.229 -1.061,-11.549 -2.055,-21.777 -2.05,-113.827 0.007,-133.373 0.317,-3.009 0.792,-7.598 1.057,-10.196 0.435,-4.289 0.835,-6.977 2.611,-17.586 0.315,-1.876 0.773,-3.775 1.018,-4.219 0.246,-0.444 0.607,-1.862 0.804,-3.15 0.196,-1.288 0.56,-2.814 0.809,-3.392 0.249,-0.577 1.054,-2.939 1.789,-5.249 1.795,-5.64 2.703,-8.094 3.69,-9.974 0.455,-0.866 0.828,-1.85 0.83,-2.187 0.002,-0.337 0.181,-0.691 0.397,-0.787 0.217,-0.097 0.979,-1.298 1.695,-2.669 0.716,-1.371 1.468,-2.493 1.671,-2.493 0.203,0 0.501,-0.414 0.661,-0.919 0.607,-1.908 7.571,-8.636 12.082,-11.672 l 4.692,-3.157 h 29.035 29.036 v 73.922 m 128.673,-72.21 c 3.042,1.752 9.634,7.019 10.092,8.064 0.142,0.324 -7.128,8.001 -16.156,17.06 -18.435,18.499 -53.867,53.479 -54.17,53.479 -0.109,0 -0.198,-18.071 -0.198,-40.158 V 50.919 l 28.74,0.006 28.74,0.007 2.952,1.699 m 30.919,74.403 c 1.546,9.634 2.756,88.404 1.613,104.987 -0.309,4.475 -0.799,13.57 -1.09,20.21 -0.829,18.908 -3.446,40.84 -5.764,48.294 -0.269,0.866 -0.647,2.7 -0.841,4.075 -0.193,1.375 -0.538,2.615 -0.766,2.756 -0.228,0.141 -0.578,1.437 -0.776,2.88 -0.198,1.443 -0.554,2.743 -0.791,2.89 -0.236,0.146 -0.589,1.208 -0.784,2.36 -0.194,1.151 -0.569,2.227 -0.833,2.39 -0.263,0.163 -0.487,0.696 -0.497,1.184 -0.01,0.488 -0.474,1.832 -1.032,2.987 -0.558,1.155 -1.022,2.27 -1.032,2.478 -0.01,0.207 -1.196,2.371 -2.635,4.808 -10.787,18.262 -33.029,28.147 -63.334,28.147 h -12.789 v -73.303 -73.303 l 4.856,-4.976 c 2.67,-2.737 5.909,-5.951 7.197,-7.143 1.288,-1.192 19.477,-19.236 40.42,-40.099 34.165,-34.033 38.091,-37.782 38.204,-36.482 0.069,0.796 0.373,2.983 0.674,4.86 m -159.464,198.032 0.134,32.415 -13.123,-10e-4 c -15.296,0 -20.021,-0.673 -32.021,-4.559 -7.241,-2.345 -21.002,-9.47 -20.12,-10.417 2.44,-2.618 35.734,-35.865 48.008,-47.94 l 16.731,-16.46 0.128,7.274 c 0.071,4 0.189,21.86 0.263,39.688"
     stroke="none"
     fill="#000000"
     fill-rule="evenodd" /></g><path
   d="m 1439.9455,224.41178 c 0,-3.18624 0.6421,-6.24114 1.7999,-9.04308 1.2112,-2.9187 2.9673,-5.53093 5.1369,-7.70049 4.2807,-4.28561 10.2057,-6.93675 16.7387,-6.93675 3.2008,0 6.2606,0.64211 9.0625,1.80472 0.058,0 0.1119,0.0535 0.18,0.0827 2.8409,1.20639 5.385,2.93329 7.5059,5.0542 4.2856,4.28075 6.9368,10.20569 6.9368,16.74356 0,0.14594 0,0.29187 -0.049,0.43294 v 251.10478 h 251.0999 c 0.1411,0 0.2968,-0.0487 0.4378,-0.0487 3.1911,0 6.2509,0.64211 9.0528,1.80473 0.068,0.0486 0.1217,0.0535 0.18,0.0827 2.8409,1.20639 5.385,2.93329 7.5059,5.0542 4.2856,4.28075 6.9465,10.20569 6.9465,16.7387 0,3.18137 -0.647,6.24114 -1.8047,9.04308 -1.2064,2.91869 -2.9625,5.53092 -5.1418,7.70048 -2.1647,2.1647 -4.7672,3.92078 -7.6859,5.13203 v 0 c -2.8019,1.15775 -5.8617,1.79986 -9.0528,1.79986 -0.141,0 -0.2967,0 -0.4378,-0.0486 l -251.0999,0.005 v 251.09978 c 0,0.14107 0.049,0.29187 0.049,0.4378 0,3.1911 -0.647,6.25573 -1.8048,9.05281 -0.049,0.0681 -0.058,0.12161 -0.087,0.17999 -1.2064,2.84086 -2.9284,5.38498 -5.0445,7.5059 -4.2953,4.29048 -10.2154,6.94162 -16.7484,6.94162 -3.1814,0 -6.2412,-0.64211 -9.0431,-1.80472 -2.9187,-1.2064 -5.5309,-2.96248 -7.7005,-5.1369 -2.1647,-2.15983 -3.9208,-4.7672 -5.132,-7.68589 v 0 c -1.1626,-2.79708 -1.8047,-5.86171 -1.8047,-9.05281 0,-0.14593 0,-0.29673 0.049,-0.4378 V 523.2177 h -251.0999 c -0.141,0 -0.287,0.0487 -0.4378,0.0487 -3.1814,0 -6.2411,-0.64211 -9.0431,-1.80473 -2.9187,-1.20639 -5.5309,-2.96247 -7.7004,-5.13689 -2.1647,-2.1647 -3.9208,-4.7672 -5.1321,-7.68589 v 0 c -1.1626,-2.80195 -1.8047,-5.86171 -1.8047,-9.05767 0,-3.18624 0.6421,-6.24114 1.8047,-9.04308 1.2113,-2.9187 2.9674,-5.53093 5.1369,-7.70049 4.2856,-4.28561 10.2057,-6.93675 16.7436,-6.93675 0.1508,0 0.2967,0 0.4378,0.0486 H 1440 V 224.84471 c 0,-0.14593 -0.049,-0.29186 -0.049,-0.4378 z"
   id="path1315"
   style="stroke-width:4.86449" /></svg>
