<?xml version="1.0" encoding="utf-8"?><svg version="1.1" id="Layer_1" xmlns="http://www.w3.org/2000/svg" xmlns:xlink="http://www.w3.org/1999/xlink" x="0px" y="0px" viewBox="0 0 120.98 122.88" style="enable-background:new 0 0 120.98 122.88" xml:space="preserve"><g><path d="M30.07,65.39l-0.71,20.73l-7.81-5.32l-7.81,4.41l1.61-22.22L4.29,61.47v46.58l40.74,4.63V67.05L30.07,65.39L30.07,65.39z M97.89,5.95c0.42-0.08,0.85,0,1.21,0.22c0.61,0.25,1.04,0.85,1.05,1.56l0.35,47.99l17.89,2.35v0c0.42-0.08,0.85,0,1.21,0.22 c0.61,0.25,1.04,0.85,1.05,1.56l0.35,49.19c0.03,0.6-0.27,1.2-0.82,1.53l-20.09,11.98c-0.28,0.21-0.64,0.34-1.02,0.34 c-0.09,0-0.19-0.01-0.27-0.02l-52.13-5.8c-0.13-0.01-0.25-0.03-0.37-0.06l-44.67-5.74c-0.9-0.04-1.61-0.79-1.61-1.69V59.55h0 c-0.02-0.67,0.36-1.32,1.01-1.6L24.55,47.6V13.24h0c-0.02-0.67,0.36-1.32,1.01-1.6l26.15-11.5l0,0c0.27-0.12,0.58-0.17,0.9-0.13 L97.89,5.95L97.89,5.95L97.89,5.95z M98.88,58.92l-15.72,9.38l15.61,1.99l14.95-9.42L98.88,58.92L98.88,58.92z M24.55,55.64V51.3 L7.87,58.63l9.57,1.22L24.55,55.64L24.55,55.64z M80.26,21.83v44.26l15.01-8.96l1.83-1.55l-0.32-44.16L80.26,21.83L80.26,21.83 L80.26,21.83z M75.96,67.18V21.4l-21.33-2.84L53.9,39.81l-7.81-5.32l-7.81,4.41l1.61-22.22l-11.96-1.53v46.58L75.96,67.18 L75.96,67.18L75.96,67.18z M73.35,6.15l-16.4,9.31l21.33,2.72l14.95-9.42L73.35,6.15L73.35,6.15L73.35,6.15z M41.99,13.54 l15.9-9.43l-5.24-0.69l-20.23,8.89L41.99,13.54L41.99,13.54z M100.75,73.94v44.26l16.85-10.05l-0.33-44.62L100.75,73.94 L100.75,73.94L100.75,73.94z M96.45,119.29V73.51l-21.33-2.84l-0.73,21.25l-7.81-5.32l-7.81,4.41l1.61-22.22l-11.06-1.08v46.58 L96.45,119.29L96.45,119.29L96.45,119.29z"/></g></svg>