<?xml version="1.0" encoding="UTF-8" standalone="no"?>
<svg
   viewBox="0 0 122.88 114.44"
   version="1.1"
   id="svg8"
   sodipodi:docname="chat-message-icon.svg"
   inkscape:version="1.1.2 (0a00cf5339, 2022-02-04)"
   xmlns:inkscape="http://www.inkscape.org/namespaces/inkscape"
   xmlns:sodipodi="http://sodipodi.sourceforge.net/DTD/sodipodi-0.dtd"
   xmlns="http://www.w3.org/2000/svg"
   xmlns:svg="http://www.w3.org/2000/svg">
  <sodipodi:namedview
     id="namedview10"
     pagecolor="#505050"
     bordercolor="#ffffff"
     borderopacity="1"
     inkscape:pageshadow="0"
     inkscape:pageopacity="0"
     inkscape:pagecheckerboard="1"
     showgrid="false"
     inkscape:zoom="7.1653267"
     inkscape:cx="61.476611"
     inkscape:cy="57.289782"
     inkscape:window-width="1920"
     inkscape:window-height="1009"
     inkscape:window-x="0"
     inkscape:window-y="1114"
     inkscape:window-maximized="1"
     inkscape:current-layer="svg8" />
  <defs
     id="defs4">
    <style
       id="style2">.a{fill-rule:evenodd;}</style>
  </defs>
  <path
     class="a"
     d="M34.75,35.84A6.72,6.72,0,1,1,28,42.56a6.72,6.72,0,0,1,6.72-6.72ZM7,0H115.91a7,7,0,0,1,7,7V79.86a7,7,0,0,1-7,7H62.55L36.14,106.45c-5,4.76-9.47,7.76-12.88,8-5,.3-7.61-3.1-7-11.56v-16H7a7,7,0,0,1-7-7V7A7,7,0,0,1,7,0ZM115.91,6.8H7A.17.17,0,0,0,6.8,7V79.86A.17.17,0,0,0,7,80H19.64a3.4,3.4,0,0,1,3.4,3.4v19.49h0a2.09,2.09,0,0,1,0,.25c-.23,3.15-.27,4.48-.17,4.47,1.67-.1,4.77-2.46,8.75-6.24l.32-.26L59.2,80.87A3.36,3.36,0,0,1,61.44,80h54.47a.17.17,0,0,0,.17-.17V7a.17.17,0,0,0-.17-.17Zm-55.47,29a6.72,6.72,0,1,1-6.73,6.72,6.72,6.72,0,0,1,6.73-6.72Zm25.69,0a6.72,6.72,0,1,1-6.73,6.72,6.72,6.72,0,0,1,6.73-6.72Z"
     id="path6"
     style="fill:#ffffff;fill-opacity:1" />
</svg>
