<svg id="Layer_1" data-name="Layer 1" xmlns="http://www.w3.org/2000/svg" viewBox="0 0 122.88 119.27"><defs><style>.cls-1{fill:#01a601;fill-rule:evenodd;}</style></defs><title>online-secure-payment</title><path d="M65.63,6.09A42.94,42.94,0,0,0,55.69,9a46.58,46.58,0,0,0-7.61,4.13,42.49,42.49,0,0,0-6.53,5.37h0a41.72,41.72,0,0,0-3.54,4H50.89A100.06,100.06,0,0,1,65.63,6.09ZM6.19,48.92H75.72a5.45,5.45,0,0,1,5.42,5.42v45.85a5.45,5.45,0,0,1-5.42,5.42H38.23c.44-1.2.83-2.44,1.17-3.73H75.72a1.7,1.7,0,0,0,1.18-.5,1.68,1.68,0,0,0,.5-1.19V74.49H4.51v5.7a34.81,34.81,0,0,1-3.74.74V54.34a5.43,5.43,0,0,1,5.42-5.42ZM53.9,80.63a7.24,7.24,0,0,1,5.83,2.93,7.27,7.27,0,1,1,0,8.68A7.27,7.27,0,1,1,53.9,80.63ZM4.51,60.11H77.4V54.34a1.69,1.69,0,0,0-1.68-1.68H6.19a1.67,1.67,0,0,0-1.68,1.68v5.77Zm107,11.72h.11a48.78,48.78,0,0,0,2.29-4.64l.06-.14a42.68,42.68,0,0,0,2.53-8.21,44.6,44.6,0,0,0,.78-6.18H104.92a44.06,44.06,0,0,1-5.68,19.17ZM108,77.34H95.81a72.13,72.13,0,0,1-4.65,6V71.83h1.71a40.33,40.33,0,0,0,6.55-19.17H91.16V47.14H99.3q-1-9.44-7.15-19.16H75.73V38.24H70.22V28H53.8a50.48,50.48,0,0,0-5.1,10.26H42.9A52.56,52.56,0,0,1,47.4,28H34.33A48.78,48.78,0,0,0,32,32.62l-.06.13a43.36,43.36,0,0,0-1.89,5.49H24.4a48.76,48.76,0,0,1,2.51-7.64l.06-.16a52.38,52.38,0,0,1,4.62-8.5A49.29,49.29,0,0,1,45,8.52a52,52,0,0,1,8.5-4.62A49.11,49.11,0,0,1,73,0,51.59,51.59,0,0,1,83,1a48.45,48.45,0,0,1,9.29,2.87l.15.06a52,52,0,0,1,8.5,4.62,49.29,49.29,0,0,1,13.43,13.42,51.57,51.57,0,0,1,4.61,8.5,48.3,48.3,0,0,1,2.94,9.45,52.19,52.19,0,0,1,0,20A48.45,48.45,0,0,1,119,69.21l-.07.15a51.17,51.17,0,0,1-4.61,8.5,49.14,49.14,0,0,1-13.43,13.43,51.92,51.92,0,0,1-8.5,4.61c-.42.18-.84.36-1.27.52v-6a46.67,46.67,0,0,0,6.71-3.73,42,42,0,0,0,6.53-5.38h0a41.72,41.72,0,0,0,3.54-4Zm-3.13-30.2h12.46A44.65,44.65,0,0,0,116.5,41a42.55,42.55,0,0,0-2.58-8.35,50.07,50.07,0,0,0-2.3-4.64H98.55a47.26,47.26,0,0,1,6.27,19.16ZM57.72,22.46h12.5V9.36a102.44,102.44,0,0,0-12.5,13.1Zm18,0h12.5a102.44,102.44,0,0,0-12.5-13.1v13.1Zm19.33,0H108a41.72,41.72,0,0,0-3.54-4h0a42.49,42.49,0,0,0-6.53-5.37A45.79,45.79,0,0,0,90.26,9l-.13-.06a42.08,42.08,0,0,0-8.22-2.53c-.52-.1-1-.2-1.58-.28A100,100,0,0,1,95.06,22.46Z"/><path class="cls-1" d="M34.42,86.91c.88,17.61-5.63,28-17.16,32.36C6.12,115.2-.46,105.25,0,86.64a24.67,24.67,0,0,0,17.16-5.28c4.94,3.13,11.24,6.09,17.23,5.55ZM7.33,98.48a17.74,17.74,0,0,1,3.87,0c.36.21.72.44,1.06.68a11.81,11.81,0,0,1,1,.74l.67.61.43.44c.58-.92,1.18-1.8,1.78-2.65s1.38-1.85,2.09-2.71,1.58-1.83,2.41-2.69,1.67-1.67,2.54-2.45l.06,0,.35-.13.08,0h3.82a.22.22,0,0,1,.22.23.2.2,0,0,1-.07.16l-.76.84q-1.77,2-3.37,4t-3.07,4.15q-1.44,2.08-2.74,4.25c-.87,1.44-1.69,2.92-2.46,4.41l-.48.92a.22.22,0,0,1-.3.1.2.2,0,0,1-.11-.11l-.43-.94a24.62,24.62,0,0,0-1.34-2.49A20.19,20.19,0,0,0,11,103.57a18.63,18.63,0,0,0-1.87-2,20.66,20.66,0,0,0-2.17-1.74.22.22,0,0,1-.09-.26l.28-.92a.22.22,0,0,1,.22-.16Z"/></svg>